<mxfile host="app.diagrams.net" agent="Mozilla/5.0 (Windows NT 10.0; Win64; x64) AppleWebKit/537.36 (KHTML, like Gecko) Chrome/140.0.0.0 Safari/537.36" version="28.2.5">
  <diagram name="Enhanced-BookMyShow-Architecture" id="enhanced-bms-hld">
    <mxGraphModel dx="1426" dy="791" grid="1" gridSize="10" guides="1" tooltips="1" connect="1" arrows="1" fold="1" page="1" pageScale="1" pageWidth="2000" pageHeight="2000" math="0" shadow="0">
      <root>
        <mxCell id="0" />
        <mxCell id="1" parent="0" />
        <mxCell id="title" value="&lt;b&gt;&lt;font style=&quot;font-size: 20px;&quot;&gt;AmritMovieMasti - High Level Design&lt;/font&gt;&lt;/b&gt;" style="text;html=1;strokeColor=none;fillColor=none;align=center;verticalAlign=middle;whiteSpace=wrap;rounded=0;" parent="1" vertex="1">
          <mxGeometry x="600" y="20" width="800" height="40" as="geometry" />
        </mxCell>
        <mxCell id="client-layer" value="Client Layer" style="rounded=1;whiteSpace=wrap;html=1;fillColor=#e1d5e7;strokeColor=#9673a6;verticalAlign=top;align=center;fontStyle=1;fontSize=14;" parent="1" vertex="1">
          <mxGeometry x="40" y="100" width="300" height="200" as="geometry" />
        </mxCell>
        <mxCell id="ndE73IZ3yxmmkXuw9tKc-1" value="" style="edgeStyle=orthogonalEdgeStyle;rounded=0;orthogonalLoop=1;jettySize=auto;html=1;" parent="1" source="client-web" target="dns-layer" edge="1">
          <mxGeometry relative="1" as="geometry" />
        </mxCell>
        <mxCell id="ndE73IZ3yxmmkXuw9tKc-6" value="B2C (HTTPS)" style="edgeLabel;html=1;align=center;verticalAlign=middle;resizable=0;points=[];" parent="ndE73IZ3yxmmkXuw9tKc-1" vertex="1" connectable="0">
          <mxGeometry x="-0.2031" y="2" relative="1" as="geometry">
            <mxPoint as="offset" />
          </mxGeometry>
        </mxCell>
        <mxCell id="client-web" value="Web Client" style="sketch=0;aspect=fixed;pointerEvents=1;shadow=0;dashed=0;html=1;strokeColor=none;labelPosition=center;verticalLabelPosition=bottom;verticalAlign=top;align=center;fillColor=#00188D;shape=mxgraph.azure.laptop" parent="1" vertex="1">
          <mxGeometry x="250" y="219" width="60" height="36" as="geometry" />
        </mxCell>
        <mxCell id="client-mobile" value="Mobile Client" style="html=1;verticalLabelPosition=bottom;align=center;labelBackgroundColor=#ffffff;verticalAlign=top;strokeWidth=2;strokeColor=#0080F0;shadow=0;dashed=0;shape=mxgraph.ios7.icons.smartphone;" parent="1" vertex="1">
          <mxGeometry x="165" y="209" width="40" height="70" as="geometry" />
        </mxCell>
        <mxCell id="ndE73IZ3yxmmkXuw9tKc-3" value="" style="edgeStyle=orthogonalEdgeStyle;rounded=0;orthogonalLoop=1;jettySize=auto;html=1;" parent="1" source="client-b2b" target="ndE73IZ3yxmmkXuw9tKc-2" edge="1">
          <mxGeometry relative="1" as="geometry" />
        </mxCell>
        <mxCell id="client-b2b" value="Theatre Partner (B2B)" style="sketch=0;aspect=fixed;pointerEvents=1;shadow=0;dashed=0;html=1;strokeColor=none;labelPosition=center;verticalLabelPosition=bottom;verticalAlign=top;align=center;fillColor=#00188D;shape=mxgraph.azure.laptop" parent="1" vertex="1">
          <mxGeometry x="155" y="130" width="60" height="36" as="geometry" />
        </mxCell>
        <mxCell id="dns-layer" value="DNS &amp; CDN Layer" style="rounded=1;whiteSpace=wrap;html=1;fillColor=#dae8fc;strokeColor=#6c8ebf;verticalAlign=top;align=center;fontStyle=1;fontSize=14;" parent="1" vertex="1">
          <mxGeometry x="400" y="100" width="300" height="200" as="geometry" />
        </mxCell>
        <mxCell id="route53" value="Route 53 DNS&amp;nbsp;&lt;b&gt;routing&lt;/b&gt;" style="outlineConnect=0;dashed=0;verticalLabelPosition=bottom;verticalAlign=top;align=center;html=1;shape=mxgraph.aws3.route_53;fillColor=#F58536;gradientColor=none;" parent="1" vertex="1">
          <mxGeometry x="440" y="150" width="70" height="85" as="geometry" />
        </mxCell>
        <mxCell id="cloudfront" value="CloudFront CDN&lt;br&gt;&lt;b&gt;Static Assets&lt;/b&gt;" style="sketch=0;points=[[0,0,0],[0.25,0,0],[0.5,0,0],[0.75,0,0],[1,0,0],[0,1,0],[0.25,1,0],[0.5,1,0],[0.75,1,0],[1,1,0],[0,0.25,0],[0,0.5,0],[0,0.75,0],[1,0.25,0],[1,0.5,0],[1,0.75,0]];outlineConnect=0;fontColor=#232F3E;fillColor=#8C4FFF;strokeColor=#ffffff;dashed=0;verticalLabelPosition=bottom;verticalAlign=top;align=center;html=1;fontSize=12;fontStyle=0;aspect=fixed;shape=mxgraph.aws4.resourceIcon;resIcon=mxgraph.aws4.cloudfront;" parent="1" vertex="1">
          <mxGeometry x="590" y="155" width="70" height="70" as="geometry" />
        </mxCell>
        <mxCell id="edge-client-dns" value="HTTPS" style="endArrow=classic;html=1;rounded=0;strokeWidth=2;strokeColor=#0080F0;" parent="1" source="ndE73IZ3yxmmkXuw9tKc-2" target="dns-layer" edge="1">
          <mxGeometry width="50" height="50" relative="1" as="geometry">
            <mxPoint x="350" y="200" as="sourcePoint" />
            <mxPoint x="400" y="150" as="targetPoint" />
          </mxGeometry>
        </mxCell>
        <mxCell id="gateway-layer" value="API Gateway Layer" style="rounded=1;whiteSpace=wrap;html=1;fillColor=#fff2cc;strokeColor=#d6b656;verticalAlign=top;align=center;fontStyle=1;fontSize=14;" parent="1" vertex="1">
          <mxGeometry x="760" y="100" width="380" height="200" as="geometry" />
        </mxCell>
        <mxCell id="api-gateway" value="API Gateway&lt;br&gt;&lt;b&gt;NGINX/AWS&lt;/b&gt;" style="sketch=0;points=[[0,0,0],[0.25,0,0],[0.5,0,0],[0.75,0,0],[1,0,0],[0,1,0],[0.25,1,0],[0.5,1,0],[0.75,1,0],[1,1,0],[0,0.25,0],[0,0.5,0],[0,0.75,0],[1,0.25,0],[1,0.5,0],[1,0.75,0]];outlineConnect=0;fontColor=#232F3E;fillColor=#E7157B;strokeColor=#ffffff;dashed=0;verticalLabelPosition=bottom;verticalAlign=top;align=center;html=1;fontSize=12;fontStyle=0;aspect=fixed;shape=mxgraph.aws4.resourceIcon;resIcon=mxgraph.aws4.api_gateway;" parent="1" vertex="1">
          <mxGeometry x="790" y="150" width="70" height="70" as="geometry" />
        </mxCell>
        <mxCell id="cognito" value="AWS Cognito&lt;br&gt;&lt;b&gt;Auth&lt;/b&gt;" style="outlineConnect=0;dashed=0;verticalLabelPosition=bottom;verticalAlign=top;align=center;html=1;shape=mxgraph.aws3.cognito;fillColor=#AD688B;gradientColor=none;" parent="1" vertex="1">
          <mxGeometry x="920" y="155" width="60" height="72" as="geometry" />
        </mxCell>
        <mxCell id="apigw-features" value="&lt;b&gt;Features:&lt;/b&gt;&lt;br&gt;• JWT Auth&lt;br&gt;• Rate Limiting&lt;br&gt;• Routing&lt;br&gt;• Circuit Breaker" style="text;html=1;strokeColor=none;fillColor=none;align=left;verticalAlign=middle;whiteSpace=wrap;rounded=0;fontSize=10;" parent="1" vertex="1">
          <mxGeometry x="1020" y="150" width="100" height="80" as="geometry" />
        </mxCell>
        <mxCell id="edge-dns-gateway" value="" style="endArrow=classic;html=1;rounded=0;strokeWidth=2;strokeColor=#0080F0;" parent="1" source="dns-layer" target="gateway-layer" edge="1">
          <mxGeometry width="50" height="50" relative="1" as="geometry">
            <mxPoint x="700" y="200" as="sourcePoint" />
            <mxPoint x="750" y="150" as="targetPoint" />
          </mxGeometry>
        </mxCell>
        <mxCell id="edge-apigw-cognito" value="Validate" style="endArrow=classic;html=1;rounded=0;dashed=1;strokeColor=#d6b656;" parent="1" source="api-gateway" target="cognito" edge="1">
          <mxGeometry width="50" height="50" relative="1" as="geometry">
            <mxPoint x="850" y="180" as="sourcePoint" />
            <mxPoint x="900" y="130" as="targetPoint" />
          </mxGeometry>
        </mxCell>
        <mxCell id="vpc" value="AWS VPC (Multi-AZ Deployment)" style="sketch=0;outlineConnect=0;gradientColor=none;html=1;whiteSpace=wrap;fontSize=14;fontStyle=1;shape=mxgraph.aws4.group;grIcon=mxgraph.aws4.group_vpc;strokeColor=#879196;fillColor=none;verticalAlign=top;align=left;spacingLeft=30;fontColor=#879196;dashed=0;" parent="1" vertex="1">
          <mxGeometry x="40" y="360" width="1800" height="1110" as="geometry" />
        </mxCell>
        <mxCell id="discovery-layer" value="Service Discovery &amp; Config" style="rounded=1;whiteSpace=wrap;html=1;fillColor=#d5e8d4;strokeColor=#82b366;verticalAlign=top;align=center;fontStyle=1;fontSize=12;" parent="1" vertex="1">
          <mxGeometry x="80" y="420" width="340" height="120" as="geometry" />
        </mxCell>
        <mxCell id="service-discovery" value="Consul/Eureka&lt;br&gt;&lt;b&gt;Service Registry&lt;/b&gt;" style="rounded=1;whiteSpace=wrap;html=1;fillColor=#dae8fc;strokeColor=#6c8ebf;" parent="1" vertex="1">
          <mxGeometry x="100" y="470" width="130" height="50" as="geometry" />
        </mxCell>
        <mxCell id="config-server" value="Config Server&lt;br&gt;&lt;b&gt;Spring Cloud&lt;/b&gt;" style="rounded=1;whiteSpace=wrap;html=1;fillColor=#dae8fc;strokeColor=#6c8ebf;" parent="1" vertex="1">
          <mxGeometry x="270" y="470" width="130" height="50" as="geometry" />
        </mxCell>
        <mxCell id="alb-section" value="Load Balancing" style="rounded=1;whiteSpace=wrap;html=1;fillColor=#ffe6cc;strokeColor=#d79b00;verticalAlign=top;align=center;fontStyle=1;fontSize=12;" parent="1" vertex="1">
          <mxGeometry x="460" y="420" width="260" height="120" as="geometry" />
        </mxCell>
        <mxCell id="vpc-endpoint" value="VPC Endpoint" style="sketch=0;outlineConnect=0;fontColor=#232F3E;gradientColor=none;fillColor=#8C4FFF;strokeColor=none;dashed=0;verticalLabelPosition=bottom;verticalAlign=top;align=center;html=1;fontSize=12;fontStyle=0;aspect=fixed;pointerEvents=1;shape=mxgraph.aws4.endpoints;" parent="1" vertex="1">
          <mxGeometry x="480" y="453" width="60" height="60" as="geometry" />
        </mxCell>
        <mxCell id="alb" value="AWS Application LB&lt;br&gt;&lt;b&gt;ALB&lt;/b&gt;" style="outlineConnect=0;dashed=0;verticalLabelPosition=bottom;verticalAlign=top;align=center;html=1;shape=mxgraph.aws3.application_load_balancer;fillColor=#F58534;gradientColor=none;" parent="1" vertex="1">
          <mxGeometry x="590" y="446" width="69" height="72" as="geometry" />
        </mxCell>
        <mxCell id="edge-gateway-vpc" value="" style="endArrow=classic;html=1;rounded=0;strokeWidth=2;strokeColor=#E7157B;" parent="1" source="api-gateway" target="vpc-endpoint" edge="1">
          <mxGeometry width="50" height="50" relative="1" as="geometry">
            <mxPoint x="700" y="350" as="sourcePoint" />
            <mxPoint x="750" y="300" as="targetPoint" />
          </mxGeometry>
        </mxCell>
        <mxCell id="edge-vpc-alb" value="" style="endArrow=classic;html=1;rounded=0;strokeWidth=2;" parent="1" source="vpc-endpoint" target="alb" edge="1">
          <mxGeometry width="50" height="50" relative="1" as="geometry">
            <mxPoint x="540" y="500" as="sourcePoint" />
            <mxPoint x="590" y="450" as="targetPoint" />
          </mxGeometry>
        </mxCell>
        <mxCell id="k8s-cluster" value="Kubernetes Cluster (EKS)" style="rounded=1;whiteSpace=wrap;html=1;fillColor=#e1d5e7;strokeColor=#9673a6;verticalAlign=top;align=left;spacingLeft=10;fontStyle=1;fontSize=14;" parent="1" vertex="1">
          <mxGeometry x="80" y="600" width="1690" height="380" as="geometry" />
        </mxCell>
        <mxCell id="user-service" value="&lt;b&gt;User Service&lt;/b&gt;&lt;br&gt;&lt;br&gt;User Management&lt;br&gt;Profile, Preferences&lt;br&gt;&lt;br&gt;&lt;i&gt;Pattern: CQRS&lt;/i&gt;" style="rounded=0;whiteSpace=wrap;html=1;fillColor=#d5e8d4;strokeColor=#82b366;align=center;verticalAlign=top;" parent="1" vertex="1">
          <mxGeometry x="120" y="660" width="160" height="130" as="geometry" />
        </mxCell>
        <mxCell id="theatre-service" value="&lt;b&gt;Theatre Service&lt;/b&gt;&lt;br&gt;&lt;br&gt;Cinema Info&lt;br&gt;Screen Layout&lt;br&gt;&lt;br&gt;&lt;i&gt;Pattern: CQRS&lt;/i&gt;" style="rounded=0;whiteSpace=wrap;html=1;fillColor=#d5e8d4;strokeColor=#82b366;align=center;verticalAlign=top;" parent="1" vertex="1">
          <mxGeometry x="320" y="660" width="160" height="130" as="geometry" />
        </mxCell>
        <mxCell id="movie-service" value="&lt;b&gt;Movie Service&lt;/b&gt;&lt;br&gt;&lt;br&gt;Movie Metadata&lt;br&gt;Reviews, Ratings&lt;br&gt;&lt;br&gt;&lt;i&gt;Pattern: CQRS&lt;/i&gt;" style="rounded=0;whiteSpace=wrap;html=1;fillColor=#d5e8d4;strokeColor=#82b366;align=center;verticalAlign=top;" parent="1" vertex="1">
          <mxGeometry x="520" y="660" width="160" height="130" as="geometry" />
        </mxCell>
        <mxCell id="search-service" value="&lt;b&gt;Search Service&lt;/b&gt;&lt;br&gt;&lt;br&gt;Movie Search&lt;br&gt;Filters, Recommendations&lt;br&gt;&lt;br&gt;&lt;i&gt;Pattern: CQRS&lt;/i&gt;" style="rounded=0;whiteSpace=wrap;html=1;fillColor=#d5e8d4;strokeColor=#82b366;align=center;verticalAlign=top;" parent="1" vertex="1">
          <mxGeometry x="720" y="660" width="160" height="130" as="geometry" />
        </mxCell>
        <mxCell id="admin-service" value="&lt;b&gt;Admin Service&lt;/b&gt;&lt;br&gt;&lt;br&gt;Theatre Onboarding&lt;br&gt;Movie Management&lt;br&gt;&lt;br&gt;&lt;i&gt;Pattern: CQRS&lt;/i&gt;" style="rounded=0;whiteSpace=wrap;html=1;fillColor=#d5e8d4;strokeColor=#82b366;align=center;verticalAlign=top;" parent="1" vertex="1">
          <mxGeometry x="920" y="660" width="160" height="130" as="geometry" />
        </mxCell>
        <mxCell id="showtime-service" value="&lt;b&gt;Showtime Service&lt;/b&gt;&lt;br&gt;&lt;br&gt;Show Schedule&lt;br&gt;Availability, Pricing&lt;br&gt;&lt;br&gt;&lt;i&gt;Pattern: Event Sourcing&lt;/i&gt;" style="rounded=0;whiteSpace=wrap;html=1;fillColor=#d5e8d4;strokeColor=#82b366;align=center;verticalAlign=top;" parent="1" vertex="1">
          <mxGeometry x="120" y="820" width="160" height="130" as="geometry" />
        </mxCell>
        <mxCell id="inventory-service" value="&lt;b&gt;Inventory Service&lt;/b&gt;&lt;br&gt;&lt;br&gt;Seat Management&lt;br&gt;Locking Logic&lt;br&gt;&lt;br&gt;&lt;i&gt;Pattern: Dist Lock&lt;/i&gt;" style="rounded=0;whiteSpace=wrap;html=1;fillColor=#fff2cc;strokeColor=#d6b656;align=center;verticalAlign=top;fontStyle=1" parent="1" vertex="1">
          <mxGeometry x="320" y="820" width="160" height="130" as="geometry" />
        </mxCell>
        <mxCell id="booking-service" value="&lt;b&gt;Booking Service&lt;/b&gt;&lt;br&gt;&lt;br&gt;Orchestrator&lt;br&gt;Booking Flow&lt;br&gt;&lt;br&gt;&lt;i&gt;Pattern: SAGA&lt;/i&gt;" style="rounded=0;whiteSpace=wrap;html=1;fillColor=#ffe6cc;strokeColor=#d79b00;align=center;verticalAlign=top;fontStyle=1" parent="1" vertex="1">
          <mxGeometry x="520" y="820" width="160" height="130" as="geometry" />
        </mxCell>
        <mxCell id="payment-service" value="&lt;b&gt;Payment Service&lt;/b&gt;&lt;br&gt;&lt;br&gt;Payment Gateway&lt;br&gt;Transactions, Refunds&lt;br&gt;&lt;br&gt;&lt;i&gt;Pattern: 2PC/SAGA&lt;/i&gt;" style="rounded=0;whiteSpace=wrap;html=1;fillColor=#ffe6cc;strokeColor=#d79b00;align=center;verticalAlign=top;fontStyle=1" parent="1" vertex="1">
          <mxGeometry x="720" y="820" width="160" height="130" as="geometry" />
        </mxCell>
        <mxCell id="notification-service" value="&lt;b&gt;Notification Service&lt;/b&gt;&lt;br&gt;&lt;br&gt;Email/SMS/Push&lt;br&gt;Async Processing&lt;br&gt;&lt;br&gt;&lt;i&gt;Pattern: Async Msg&lt;/i&gt;" style="rounded=0;whiteSpace=wrap;html=1;fillColor=#d5e8d4;strokeColor=#82b366;align=center;verticalAlign=top;" parent="1" vertex="1">
          <mxGeometry x="920" y="820" width="160" height="130" as="geometry" />
        </mxCell>
        <mxCell id="edge-alb-booking" value="" style="endArrow=classic;html=1;rounded=0;strokeWidth=2;strokeColor=#F58534;" parent="1" source="alb" target="booking-service" edge="1">
          <mxGeometry width="50" height="50" relative="1" as="geometry">
            <mxPoint x="600" y="700" as="sourcePoint" />
            <mxPoint x="650" y="650" as="targetPoint" />
          </mxGeometry>
        </mxCell>
        <mxCell id="edge-booking-inventory" value="1. Lock Seats" style="endArrow=classic;html=1;rounded=0;dashed=1;strokeWidth=2;strokeColor=#d79b00;" parent="1" source="booking-service" target="inventory-service" edge="1">
          <mxGeometry width="50" height="50" relative="1" as="geometry">
            <mxPoint x="500" y="850" as="sourcePoint" />
            <mxPoint x="550" y="800" as="targetPoint" />
          </mxGeometry>
        </mxCell>
        <mxCell id="edge-booking-payment" value="2. Payment" style="endArrow=classic;html=1;rounded=0;dashed=1;strokeWidth=2;strokeColor=#d79b00;" parent="1" source="booking-service" target="payment-service" edge="1">
          <mxGeometry width="50" height="50" relative="1" as="geometry">
            <mxPoint x="650" y="850" as="sourcePoint" />
            <mxPoint x="700" y="800" as="targetPoint" />
          </mxGeometry>
        </mxCell>
        <mxCell id="edge-booking-notification" value="" style="endArrow=classic;html=1;rounded=0;dashed=1;strokeWidth=2;strokeColor=#d79b00;" parent="1" source="booking-service" target="notification-service" edge="1">
          <mxGeometry width="50" height="50" relative="1" as="geometry">
            <mxPoint x="800" y="850" as="sourcePoint" />
            <mxPoint x="850" y="800" as="targetPoint" />
          </mxGeometry>
        </mxCell>
        <mxCell id="ndE73IZ3yxmmkXuw9tKc-9" value="3. Notify" style="edgeLabel;html=1;align=center;verticalAlign=middle;resizable=0;points=[];" parent="edge-booking-notification" vertex="1" connectable="0">
          <mxGeometry x="0.6417" relative="1" as="geometry">
            <mxPoint as="offset" />
          </mxGeometry>
        </mxCell>
        <mxCell id="data-layer" value="Data Layer - Database Per Service Pattern" style="rounded=1;whiteSpace=wrap;html=1;fillColor=#f5f5f5;strokeColor=#666666;verticalAlign=top;align=left;spacingLeft=10;fontStyle=1;fontSize=14;" parent="1" vertex="1">
          <mxGeometry x="80" y="1045" width="1700" height="400" as="geometry" />
        </mxCell>
        <mxCell id="zH0lleFkGFdyvLkhury_-1" value="" style="edgeStyle=orthogonalEdgeStyle;rounded=0;orthogonalLoop=1;jettySize=auto;html=1;" edge="1" parent="1" source="postgres" target="kafka">
          <mxGeometry relative="1" as="geometry" />
        </mxCell>
        <mxCell id="postgres" value="MySQL&lt;div&gt;&lt;b&gt;Primary + Replicas&lt;/b&gt;&lt;br&gt;&lt;br&gt;User, Theatre,&lt;br&gt;Booking, Payment&lt;/div&gt;" style="image;aspect=fixed;perimeter=ellipsePerimeter;html=1;align=center;shadow=0;dashed=0;spacingTop=3;image=img/lib/active_directory/database.svg;verticalAlign=top;" parent="1" vertex="1">
          <mxGeometry x="140" y="1110" width="90" height="66.6" as="geometry" />
        </mxCell>
        <mxCell id="redis" value="Redis Cluster&lt;br&gt;Session Storage&lt;br&gt;Seat Locking" style="image;sketch=0;aspect=fixed;html=1;points=[];align=center;fontSize=12;image=img/lib/mscae/Cache_Redis_Product.svg;verticalAlign=top;" parent="1" vertex="1">
          <mxGeometry x="310" y="1110" width="90" height="75.8" as="geometry" />
        </mxCell>
        <mxCell id="cassandra" value="Showtime Data&lt;br&gt;Event Logs" style="sketch=0;points=[[0,0,0],[0.25,0,0],[0.5,0,0],[0.75,0,0],[1,0,0],[0,1,0],[0.25,1,0],[0.5,1,0],[0.75,1,0],[1,1,0],[0,0.25,0],[0,0.5,0],[0,0.75,0],[1,0.25,0],[1,0.5,0],[1,0.75,0]];outlineConnect=0;fontColor=#232F3E;fillColor=#C925D1;strokeColor=#ffffff;dashed=0;verticalLabelPosition=bottom;verticalAlign=top;align=center;html=1;fontSize=12;fontStyle=0;aspect=fixed;shape=mxgraph.aws4.resourceIcon;resIcon=mxgraph.aws4.managed_apache_cassandra_service;" parent="1" vertex="1">
          <mxGeometry x="470" y="1070" width="80" height="80" as="geometry" />
        </mxCell>
        <mxCell id="mongodb" value="MongoDB&lt;br&gt;&lt;b&gt;Document Store&lt;/b&gt;&lt;br&gt;&lt;br&gt;Movie Metadata&lt;br&gt;Reviews" style="shape=cylinder3;whiteSpace=wrap;html=1;boundedLbl=1;backgroundOutline=1;size=15;fillColor=#d5e8d4;strokeColor=#82b366;verticalAlign=top;" parent="1" vertex="1">
          <mxGeometry x="640" y="1110" width="90" height="90" as="geometry" />
        </mxCell>
        <mxCell id="elasticsearch" value="Elasticsearch&lt;br&gt;&lt;b&gt;Search Engine&lt;/b&gt;&lt;br&gt;&lt;br&gt;Movie Search&lt;br&gt;Full-text Index" style="outlineConnect=0;dashed=0;verticalLabelPosition=bottom;verticalAlign=top;align=center;html=1;shape=mxgraph.aws3.elasticsearch_service;fillColor=#F58534;gradientColor=none;" parent="1" vertex="1">
          <mxGeometry x="800" y="1167" width="80" height="96" as="geometry" />
        </mxCell>
        <mxCell id="s3" value="S3&lt;br&gt;&lt;b&gt;Object Storage&lt;/b&gt;&lt;br&gt;&lt;br&gt;Images, Videos&lt;br&gt;Backups" style="sketch=0;points=[[0,0,0],[0.25,0,0],[0.5,0,0],[0.75,0,0],[1,0,0],[0,1,0],[0.25,1,0],[0.5,1,0],[0.75,1,0],[1,1,0],[0,0.25,0],[0,0.5,0],[0,0.75,0],[1,0.25,0],[1,0.5,0],[1,0.75,0]];outlineConnect=0;fontColor=#232F3E;fillColor=#7AA116;strokeColor=#ffffff;dashed=0;verticalLabelPosition=bottom;verticalAlign=top;align=center;html=1;fontSize=12;fontStyle=0;aspect=fixed;shape=mxgraph.aws4.resourceIcon;resIcon=mxgraph.aws4.s3;" parent="1" vertex="1">
          <mxGeometry x="960" y="1110" width="80" height="80" as="geometry" />
        </mxCell>
        <mxCell id="kafka" value="Kafka&lt;br&gt;&lt;b&gt;Event Stream&lt;/b&gt;&lt;br&gt;&lt;br&gt;Event Bus, CDC&lt;br&gt;SAGA Events" style="points=[];aspect=fixed;html=1;align=center;shadow=0;dashed=0;fillColor=#FF6A00;strokeColor=none;shape=mxgraph.alibaba_cloud.kafka;verticalAlign=top;" parent="1" vertex="1">
          <mxGeometry x="130" y="1285.3500000000001" width="90" height="66.7" as="geometry" />
        </mxCell>
        <mxCell id="debezium" value="Debezium CDC&lt;br&gt;&lt;b&gt;Change Capture&lt;/b&gt;" style="outlineConnect=0;dashed=0;verticalLabelPosition=bottom;verticalAlign=top;align=center;html=1;shape=mxgraph.aws3.event_event_based;fillColor=#759C3E;gradientColor=none;" parent="1" vertex="1">
          <mxGeometry x="320" y="1290" width="70" height="57.4" as="geometry" />
        </mxCell>
        <mxCell id="message-queue" value="SQS/RabbitMQ&lt;br&gt;&lt;b&gt;Message Queue&lt;/b&gt;&lt;br&gt;Notifications&lt;br&gt;Async Tasks" style="sketch=0;points=[[0,0,0],[0.25,0,0],[0.5,0,0],[0.75,0,0],[1,0,0],[0,1,0],[0.25,1,0],[0.5,1,0],[0.75,1,0],[1,1,0],[0,0.25,0],[0,0.5,0],[0,0.75,0],[1,0.25,0],[1,0.5,0],[1,0.75,0]];outlineConnect=0;fontColor=#232F3E;fillColor=#E7157B;strokeColor=#ffffff;dashed=0;verticalLabelPosition=bottom;verticalAlign=top;align=center;html=1;fontSize=12;fontStyle=0;aspect=fixed;shape=mxgraph.aws4.resourceIcon;resIcon=mxgraph.aws4.sqs;" parent="1" vertex="1">
          <mxGeometry x="480" y="1272" width="80" height="80" as="geometry" />
        </mxCell>
        <mxCell id="edge-user-postgres" value="" style="endArrow=classic;html=1;rounded=0;strokeWidth=1.5;strokeColor=#82b366;" parent="1" source="user-service" target="postgres" edge="1">
          <mxGeometry width="50" height="50" relative="1" as="geometry">
            <mxPoint x="200" y="900" as="sourcePoint" />
            <mxPoint x="250" y="850" as="targetPoint" />
          </mxGeometry>
        </mxCell>
        <mxCell id="edge-inventory-redis" value="" style="endArrow=classic;html=1;rounded=0;strokeWidth=2;strokeColor=#d6b656;fontStyle=1" parent="1" source="inventory-service" target="redis" edge="1">
          <mxGeometry width="50" height="50" relative="1" as="geometry">
            <mxPoint x="400" y="900" as="sourcePoint" />
            <mxPoint x="450" y="850" as="targetPoint" />
          </mxGeometry>
        </mxCell>
        <mxCell id="ndE73IZ3yxmmkXuw9tKc-12" value="&lt;span style=&quot;font-weight: 700;&quot;&gt;Distributed Lock&lt;/span&gt;" style="edgeLabel;html=1;align=center;verticalAlign=middle;resizable=0;points=[];" parent="edge-inventory-redis" vertex="1" connectable="0">
          <mxGeometry x="-0.7449" y="-2" relative="1" as="geometry">
            <mxPoint as="offset" />
          </mxGeometry>
        </mxCell>
        <mxCell id="edge-showtime-cassandra" value="" style="endArrow=classic;html=1;rounded=0;strokeWidth=1.5;strokeColor=#82b366;" parent="1" source="showtime-service" target="cassandra" edge="1">
          <mxGeometry width="50" height="50" relative="1" as="geometry">
            <mxPoint x="400" y="900" as="sourcePoint" />
            <mxPoint x="450" y="850" as="targetPoint" />
          </mxGeometry>
        </mxCell>
        <mxCell id="edge-movie-mongo" value="" style="endArrow=classic;html=1;rounded=0;strokeWidth=1.5;strokeColor=#82b366;" parent="1" source="movie-service" target="mongodb" edge="1">
          <mxGeometry width="50" height="50" relative="1" as="geometry">
            <mxPoint x="600" y="900" as="sourcePoint" />
            <mxPoint x="650" y="850" as="targetPoint" />
          </mxGeometry>
        </mxCell>
        <mxCell id="edge-search-elastic" value="" style="endArrow=classic;html=1;rounded=0;strokeWidth=1.5;strokeColor=#82b366;" parent="1" source="search-service" target="elasticsearch" edge="1">
          <mxGeometry width="50" height="50" relative="1" as="geometry">
            <mxPoint x="800" y="900" as="sourcePoint" />
            <mxPoint x="850" y="850" as="targetPoint" />
          </mxGeometry>
        </mxCell>
        <mxCell id="edge-booking-postgres" value="" style="endArrow=classic;html=1;rounded=0;strokeWidth=1.5;strokeColor=#d79b00;" parent="1" source="booking-service" target="postgres" edge="1">
          <mxGeometry width="50" height="50" relative="1" as="geometry">
            <mxPoint x="400" y="950" as="sourcePoint" />
            <mxPoint x="450" y="900" as="targetPoint" />
          </mxGeometry>
        </mxCell>
        <mxCell id="edge-booking-kafka" value="" style="endArrow=classic;html=1;rounded=0;strokeWidth=2;strokeColor=#d79b00;fontStyle=1" parent="1" source="booking-service" target="kafka" edge="1">
          <mxGeometry width="50" height="50" relative="1" as="geometry">
            <mxPoint x="400" y="1000" as="sourcePoint" />
            <mxPoint x="450" y="950" as="targetPoint" />
          </mxGeometry>
        </mxCell>
        <mxCell id="ndE73IZ3yxmmkXuw9tKc-13" value="&lt;span style=&quot;font-weight: 700;&quot;&gt;Distributed Lock&lt;/span&gt;" style="edgeLabel;html=1;align=center;verticalAlign=middle;resizable=0;points=[];" parent="edge-booking-kafka" vertex="1" connectable="0">
          <mxGeometry x="-0.5804" y="-1" relative="1" as="geometry">
            <mxPoint x="1" as="offset" />
          </mxGeometry>
        </mxCell>
        <mxCell id="edge-notification-sqs" value="" style="endArrow=classic;html=1;rounded=0;strokeWidth=1.5;strokeColor=#82b366;" parent="1" source="notification-service" target="message-queue" edge="1">
          <mxGeometry width="50" height="50" relative="1" as="geometry">
            <mxPoint x="800" y="1000" as="sourcePoint" />
            <mxPoint x="850" y="950" as="targetPoint" />
          </mxGeometry>
        </mxCell>
        <mxCell id="edge-postgres-debezium" value="" style="endArrow=classic;html=1;rounded=0;dashed=1;strokeWidth=1.5;strokeColor=#759C3E;" parent="1" source="postgres" target="debezium" edge="1">
          <mxGeometry width="50" height="50" relative="1" as="geometry">
            <mxPoint x="250" y="1200" as="sourcePoint" />
            <mxPoint x="300" y="1150" as="targetPoint" />
          </mxGeometry>
        </mxCell>
        <mxCell id="ndE73IZ3yxmmkXuw9tKc-14" value="CDC" style="edgeLabel;html=1;align=center;verticalAlign=middle;resizable=0;points=[];" parent="edge-postgres-debezium" vertex="1" connectable="0">
          <mxGeometry x="0.3025" y="-1" relative="1" as="geometry">
            <mxPoint as="offset" />
          </mxGeometry>
        </mxCell>
        <mxCell id="edge-debezium-kafka" value="" style="endArrow=classic;html=1;rounded=0;strokeWidth=1.5;strokeColor=#759C3E;" parent="1" source="debezium" target="kafka" edge="1">
          <mxGeometry width="50" height="50" relative="1" as="geometry">
            <mxPoint x="250" y="1250" as="sourcePoint" />
            <mxPoint x="300" y="1200" as="targetPoint" />
          </mxGeometry>
        </mxCell>
        <mxCell id="edge-kafka-elastic" value="" style="endArrow=classic;html=1;rounded=0;dashed=1;strokeWidth=1.5;strokeColor=#FF6A00;" parent="1" source="kafka" target="elasticsearch" edge="1">
          <mxGeometry width="50" height="50" relative="1" as="geometry">
            <mxPoint x="600" y="1200" as="sourcePoint" />
            <mxPoint x="650" y="1150" as="targetPoint" />
          </mxGeometry>
        </mxCell>
        <mxCell id="edge-kafka-mongo" value="" style="endArrow=classic;html=1;rounded=0;dashed=1;strokeWidth=1.5;strokeColor=#FF6A00;" parent="1" source="kafka" target="mongodb" edge="1">
          <mxGeometry width="50" height="50" relative="1" as="geometry">
            <mxPoint x="400" y="1200" as="sourcePoint" />
            <mxPoint x="450" y="1150" as="targetPoint" />
          </mxGeometry>
        </mxCell>
        <mxCell id="observability" value="Observability &amp; Monitoring" style="rounded=1;whiteSpace=wrap;html=1;fillColor=#fff2cc;strokeColor=#d6b656;verticalAlign=top;align=center;fontStyle=1;fontSize=14;" parent="1" vertex="1">
          <mxGeometry x="1180" y="660" width="530" height="290" as="geometry" />
        </mxCell>
        <mxCell id="prometheus" value="Prometheus&lt;br&gt;&lt;b&gt;Metrics&lt;/b&gt;" style="sketch=0;html=1;dashed=0;whitespace=wrap;fillColor=#2875E2;strokeColor=#ffffff;points=[[0.005,0.63,0],[0.1,0.2,0],[0.9,0.2,0],[0.5,0,0],[0.995,0.63,0],[0.72,0.99,0],[0.5,1,0],[0.28,0.99,0]];shape=mxgraph.kubernetes.icon;prIcon=prometheus;verticalAlign=bottom;" parent="1" vertex="1">
          <mxGeometry x="1220" y="710" width="90" height="87" as="geometry" />
        </mxCell>
        <mxCell id="grafana" value="Grafana&lt;br&gt;&lt;b&gt;Dashboards&lt;/b&gt;" style="rounded=1;whiteSpace=wrap;html=1;fillColor=#dae8fc;strokeColor=#6c8ebf;" parent="1" vertex="1">
          <mxGeometry x="1360" y="720" width="100" height="60" as="geometry" />
        </mxCell>
        <mxCell id="elk-stack" value="&lt;b&gt;Loki for distributed&amp;nbsp;&lt;/b&gt;&lt;div&gt;&lt;b&gt;Log Tracing&lt;/b&gt;&lt;/div&gt;" style="rounded=0;whiteSpace=wrap;html=1;fillColor=#dae8fc;strokeColor=#6c8ebf;align=center;" parent="1" vertex="1">
          <mxGeometry x="1530" y="720" width="100" height="65" as="geometry" />
        </mxCell>
        <mxCell id="pagerduty" value="&lt;b&gt;Alerting&lt;/b&gt;" style="rounded=0;whiteSpace=wrap;html=1;fillColor=#f8cecc;strokeColor=#b85450;" parent="1" vertex="1">
          <mxGeometry x="1220" y="840" width="100" height="60" as="geometry" />
        </mxCell>
        <mxCell id="cloudwatch" value="CloudWatch&lt;br&gt;&lt;b&gt;AWS Monitoring&lt;/b&gt;" style="rounded=0;whiteSpace=wrap;html=1;fillColor=#dae8fc;strokeColor=#6c8ebf;" parent="1" vertex="1">
          <mxGeometry x="1360" y="840" width="120" height="60" as="geometry" />
        </mxCell>
        <mxCell id="xray" value="AWS X-Ray&lt;br&gt;&lt;b&gt;Tracing&lt;/b&gt;" style="rounded=0;whiteSpace=wrap;html=1;fillColor=#dae8fc;strokeColor=#6c8ebf;" parent="1" vertex="1">
          <mxGeometry x="1530" y="840" width="100" height="60" as="geometry" />
        </mxCell>
        <mxCell id="external-services" value="External Services" style="rounded=1;whiteSpace=wrap;html=1;fillColor=#e1d5e7;strokeColor=#9673a6;verticalAlign=top;align=center;fontStyle=1;fontSize=14;" parent="1" vertex="1">
          <mxGeometry x="1180" y="1060" width="530" height="280" as="geometry" />
        </mxCell>
        <mxCell id="payment-gateways" value="&lt;b&gt;Payment Gateways&lt;/b&gt;" style="text;html=1;strokeColor=none;fillColor=none;align=left;verticalAlign=middle;whiteSpace=wrap;rounded=0;fontStyle=1" parent="1" vertex="1">
          <mxGeometry x="1220" y="1090" width="140" height="20" as="geometry" />
        </mxCell>
        <mxCell id="razorpay" value="Razorpay" style="rounded=1;whiteSpace=wrap;html=1;fillColor=#d5e8d4;strokeColor=#82b366;" parent="1" vertex="1">
          <mxGeometry x="1220" y="1120" width="100" height="40" as="geometry" />
        </mxCell>
        <mxCell id="stripe" value="Stripe" style="rounded=1;whiteSpace=wrap;html=1;fillColor=#d5e8d4;strokeColor=#82b366;" parent="1" vertex="1">
          <mxGeometry x="1350" y="1120" width="100" height="40" as="geometry" />
        </mxCell>
        <mxCell id="paytm" value="UPI" style="rounded=1;whiteSpace=wrap;html=1;fillColor=#d5e8d4;strokeColor=#82b366;" parent="1" vertex="1">
          <mxGeometry x="1480" y="1120" width="100" height="40" as="geometry" />
        </mxCell>
        <mxCell id="notification-providers" value="&lt;b&gt;Notification Providers&lt;/b&gt;" style="text;html=1;strokeColor=none;fillColor=none;align=left;verticalAlign=middle;whiteSpace=wrap;rounded=0;fontStyle=1" parent="1" vertex="1">
          <mxGeometry x="1220" y="1190" width="160" height="20" as="geometry" />
        </mxCell>
        <mxCell id="twilio" value="Twilio&lt;br&gt;(SMS)" style="rounded=1;whiteSpace=wrap;html=1;fillColor=#dae8fc;strokeColor=#6c8ebf;" parent="1" vertex="1">
          <mxGeometry x="1290" y="1220" width="90" height="50" as="geometry" />
        </mxCell>
        <mxCell id="sns" value="AWS SNS (SMS/Email/Push)" style="rounded=1;whiteSpace=wrap;html=1;fillColor=#dae8fc;strokeColor=#6c8ebf;" parent="1" vertex="1">
          <mxGeometry x="1430" y="1220" width="110" height="50" as="geometry" />
        </mxCell>
        <mxCell id="edge-payment-razorpay" value="" style="endArrow=classic;html=1;rounded=0;strokeWidth=1.5;strokeColor=#d79b00;" parent="1" source="payment-service" target="razorpay" edge="1">
          <mxGeometry width="50" height="50" relative="1" as="geometry">
            <mxPoint x="900" y="1000" as="sourcePoint" />
            <mxPoint x="950" y="950" as="targetPoint" />
          </mxGeometry>
        </mxCell>
        <mxCell id="edge-notif-twilio" value="" style="endArrow=classic;html=1;rounded=0;strokeWidth=1.5;strokeColor=#82b366;" parent="1" source="notification-service" target="twilio" edge="1">
          <mxGeometry width="50" height="50" relative="1" as="geometry">
            <mxPoint x="1000" y="1100" as="sourcePoint" />
            <mxPoint x="1050" y="1050" as="targetPoint" />
          </mxGeometry>
        </mxCell>
        <mxCell id="saga-panel" value="&lt;b&gt;SAGA Orchestration Flow&lt;/b&gt;" style="rounded=1;whiteSpace=wrap;html=1;fillColor=#ffe6cc;strokeColor=#d79b00;verticalAlign=top;align=left;spacingLeft=10;fontStyle=1;fontSize=12;" parent="1" vertex="1">
          <mxGeometry x="780" y="420" width="300" height="150" as="geometry" />
        </mxCell>
        <mxCell id="saga-steps" value="&lt;b&gt;Booking Transaction Steps:&lt;/b&gt;&lt;div&gt;1.&amp;nbsp; Lock Seats (Inventory Service)&lt;/div&gt;&lt;div&gt;2.&amp;nbsp; Create Booking (Booking Service)&lt;/div&gt;&lt;div&gt;3.&amp;nbsp; Process Payment (Payment Service)&lt;br&gt;4.&amp;nbsp; Confirm Booking (Booking Service)&lt;br&gt;5.&amp;nbsp; Send Notification (Notification Service)&lt;br&gt;&lt;br&gt;&lt;i&gt;*** On Failure: Compensating Transactions&lt;/i&gt;&lt;br&gt;Release Seats → Refund → Cancel → Notify&lt;/div&gt;" style="text;html=1;strokeColor=none;fillColor=none;align=left;verticalAlign=top;whiteSpace=wrap;rounded=0;fontSize=10;" parent="1" vertex="1">
          <mxGeometry x="790" y="450" width="280" height="110" as="geometry" />
        </mxCell>
        <mxCell id="locking-panel" value="&lt;b&gt;Multi-Level Seat Locking&lt;/b&gt;" style="rounded=1;whiteSpace=wrap;html=1;fillColor=#fff2cc;strokeColor=#d6b656;verticalAlign=top;align=left;spacingLeft=10;fontStyle=1;fontSize=12;" parent="1" vertex="1">
          <mxGeometry x="1120" y="420" width="300" height="150" as="geometry" />
        </mxCell>
        <mxCell id="locking-details" value="&lt;b&gt;Level 1:&lt;/b&gt; Redis Distributed Lock&lt;br&gt;• SET with TTL (8 min)&lt;br&gt;• @Transactional for atomicity&lt;br&gt;&lt;br&gt;&lt;b&gt;Level 2:&lt;/b&gt; MySQL Pessimistic Lock&lt;br&gt;• SELECT FOR UPDATE SKIP LOCKED&lt;br&gt;&lt;br&gt;&lt;b&gt;Level 3:&lt;/b&gt; State Machine&lt;br&gt;• AVAILABLE → LOCKED → BOOKED&lt;br&gt;• Auto-expiry after 5 minutes" style="text;html=1;strokeColor=none;fillColor=none;align=left;verticalAlign=top;whiteSpace=wrap;rounded=0;fontSize=10;" parent="1" vertex="1">
          <mxGeometry x="1130" y="438" width="280" height="110" as="geometry" />
        </mxCell>
        <mxCell id="cqrs-panel" value="&lt;b&gt;CQRS Pattern Implementation&lt;/b&gt;" style="rounded=1;whiteSpace=wrap;html=1;fillColor=#d5e8d4;strokeColor=#82b366;verticalAlign=top;align=left;spacingLeft=10;fontStyle=1;fontSize=12;" parent="1" vertex="1">
          <mxGeometry x="1460" y="420" width="300" height="150" as="geometry" />
        </mxCell>
        <mxCell id="cqrs-details" value="&lt;b&gt;Write Model (Command):&lt;/b&gt;&lt;br&gt;• MySQL (ACID compliance)&lt;br&gt;• Strong consistency&lt;br&gt;• Event publishing via CDC&lt;br&gt;&lt;br&gt;&lt;b&gt;Read Model (Query):&lt;/b&gt;&lt;br&gt;• MongoDB (Denormalized views)&lt;br&gt;• Elasticsearch (Search index)&lt;br&gt;• Redis (Hot cache)&lt;br&gt;• Eventually consistent" style="text;html=1;strokeColor=none;fillColor=none;align=left;verticalAlign=top;whiteSpace=wrap;rounded=0;fontSize=10;" parent="1" vertex="1">
          <mxGeometry x="1470" y="442" width="280" height="110" as="geometry" />
        </mxCell>
        <mxCell id="ndE73IZ3yxmmkXuw9tKc-2" value="" style="shape=waypoint;sketch=0;size=6;pointerEvents=1;points=[];fillColor=#00188D;resizable=0;rotatable=0;perimeter=centerPerimeter;snapToPoint=1;verticalAlign=top;strokeColor=none;shadow=0;dashed=0;" parent="1" vertex="1">
          <mxGeometry x="390" y="166" width="20" height="20" as="geometry" />
        </mxCell>
        <mxCell id="ndE73IZ3yxmmkXuw9tKc-16" value="" style="endArrow=classic;html=1;rounded=0;dashed=1;strokeWidth=1.5;strokeColor=#759C3E;" parent="1" source="cassandra" target="debezium" edge="1">
          <mxGeometry width="50" height="50" relative="1" as="geometry">
            <mxPoint x="450" y="1180" as="sourcePoint" />
            <mxPoint x="566" y="1300" as="targetPoint" />
          </mxGeometry>
        </mxCell>
        <mxCell id="ndE73IZ3yxmmkXuw9tKc-17" value="CDC" style="edgeLabel;html=1;align=center;verticalAlign=middle;resizable=0;points=[];" parent="ndE73IZ3yxmmkXuw9tKc-16" vertex="1" connectable="0">
          <mxGeometry x="0.3025" y="-1" relative="1" as="geometry">
            <mxPoint as="offset" />
          </mxGeometry>
        </mxCell>
      </root>
    </mxGraphModel>
  </diagram>
</mxfile>
